Coordinates
version=1
nRows=21
nColumns=22
inDegrees=yes

Units are S.I. units (second, meters, Newtons, ...)
If the header above contains a line with 'inDegrees', this indicates whether rotational values are in degrees (yes) or radians (no).

endheader
time	pelvis_tilt	pelvis_list	pelvis_rotation	pelvis_tx	pelvis_ty	pelvis_tz	hip_flexion_r	hip_adduction_r	hip_rotation_r	knee_angle_r	ankle_angle_r	subtalar_angle_r	hip_flexion_l	hip_adduction_l	hip_rotation_l	knee_angle_l	ankle_angle_l	subtalar_angle_l	lumbar_extension	lumbar_bending	lumbar_rotation
      5.39000000	      1.91554308	     -2.26373930	    -37.66521442	      0.50309875	      0.88091391	      0.29204892	    -17.44576155	      2.54445284	     -1.30976999	    -13.64146843	     20.43570250	     -1.26391056	     23.22960545	     -5.72587066	    -15.89044496	    -23.25859359	      4.07855389	     -4.10259224	     -6.97307592	     -0.20502920	      7.78052403
      5.40000000	      1.94912092	     -1.98018970	    -37.62998432	      0.50981644	      0.88133380	      0.29421418	    -17.49598843	      2.11768655	     -1.11775207	    -14.03772086	     19.90112070	     -0.99848152	     23.24849169	     -5.30814954	    -15.62750488	    -23.77164178	      3.96010384	     -4.53263265	     -6.78525488	     -0.53198567	      7.72332512
      5.41000000	      1.98946901	     -1.68770029	    -37.57375700	      0.51657656	      0.88181414	      0.29631875	    -17.50583848	      1.68423596	     -0.90983066	    -14.50005727	     19.34203056	     -0.74583722	     23.22610032	     -4.85949484	    -15.38430457	    -24.21581802	      3.88858272	     -4.88597163	     -6.60523209	     -0.86743642	      7.67862294
      5.42000000	      2.02542425	     -1.39847033	    -37.51546594	      0.52337295	      0.88233254	      0.29837443	    -17.47100847	      1.25381828	     -0.68472928	    -15.02940147	     18.73281661	     -0.37780614	     23.14973738	     -4.40192140	    -15.18201080	    -24.57221544	      3.98049561	     -5.28614458	     -6.42734143	     -1.19076111	      7.68252918
      5.43000000	      2.04967236	     -1.12200380	    -37.46528247	      0.53015701	      0.88288439	      0.30038335	    -17.38111777	      0.83959332	     -0.42245617	    -15.63736675	     18.08734724	      0.01907850	     23.01569154	     -3.95283453	    -15.02708532	    -24.82968290	      4.15480542	     -5.64674742	     -6.25464696	     -1.49012411	      7.72853320
      5.44000000	      2.06205075	     -0.87172428	    -37.42866112	      0.53689118	      0.88346977	      0.30231501	    -17.23144720	      0.44976003	     -0.13681175	    -16.34071396	     17.40332629	      0.49695869	     22.82111428	     -3.52001240	    -14.89368993	    -24.98896535	      4.38186683	     -6.04364997	     -6.10343018	     -1.74714255	      7.82194224
      5.45000000	      2.05694596	     -0.61487685	    -37.41609002	      0.54358134	      0.88404836	      0.30424573	    -17.01025055	      0.06378938	      0.18940377	    -17.11671744	     16.68806400	      0.94580073	     22.59188420	     -3.09887302	    -14.84958750	    -25.06236107	      4.64009706	     -6.41836564	     -5.92794461	     -1.99664475	      7.93272372
      5.46000000	      2.03614363	     -0.36443287	    -37.43552114	      0.55018976	      0.88462550	      0.30617313	    -16.71976269	     -0.31071601	      0.55774431	    -17.97419702	     15.94137855	      1.35466178	     22.32941461	     -2.70187084	    -14.87721698	    -25.06347578	      4.91884644	     -6.78015541	     -5.74380090	     -2.22829765	      8.07586719
      5.47000000	      2.00623905	     -0.13417701	    -37.45825619	      0.55674020	      0.88521717	      0.30808299	    -16.39813852	     -0.65721978	      0.93473555	    -18.87198022	     15.11768988	      1.86536329	     22.03422792	     -2.32372005	    -14.92204801	    -25.00944388	      5.22626938	     -7.24268772	     -5.56229865	     -2.42984996	      8.19832814
      5.48000000	      1.96640078	      0.08114652	    -37.53012696	      0.56314570	      0.88580651	      0.31002961	    -16.00612522	     -0.98844886	      1.36838920	    -19.86469103	     14.30122890	      2.29558893	     21.71904281	     -1.98581173	    -15.03047607	    -24.92296046	      5.51196367	     -7.65235459	     -5.38299737	     -2.61442052	      8.37456963
      5.49000000	      1.92165988	      0.27379577	    -37.62356949	      0.56943553	      0.88639867	      0.31199901	    -15.57184657	     -1.29367616	      1.82266093	    -20.92264054	     13.46329375	      2.72349002	     21.38901059	     -1.68189477	    -15.16388646	    -24.82306784	      5.78512751	     -8.05309706	     -5.21336421	     -2.77599479	      8.55876083
      5.50000000	      1.87158605	      0.43993850	    -37.73273087	      0.57560143	      0.88698795	      0.31399651	    -15.09971530	     -1.56420660	      2.30507956	    -22.04255513	     12.61619607	      3.14620485	     21.05388038	     -1.41569378	    -15.30659545	    -24.72845317	      6.04044605	     -8.42032063	     -5.05679340	     -2.91329841	      8.74469577
      5.51000000	      1.81581719	      0.57570571	    -37.85000092	      0.58164101	      0.88757174	      0.31601575	    -14.58730104	     -1.79345162	      2.80507964	    -23.23415471	     11.76535436	      3.56662818	     20.71994493	     -1.18950836	    -15.44489248	    -24.65217645	      6.28105047	     -8.73349357	     -4.91640357	     -3.02160245	      8.92322435
      5.52000000	      1.76128068	      0.67909941	    -37.98943230	      0.58752201	      0.88815229	      0.31807555	    -14.02765976	     -1.98436077	      3.33277277	    -24.51983745	     10.94279845	      3.87068805	     20.38595692	     -1.01225152	    -15.61098045	    -24.60877999	      6.49524858	     -8.91765146	     -4.80346313	     -3.10772138	      9.11689051
      5.53000000	      1.67222253	      0.75375298	    -38.09326625	      0.59331133	      0.88868322	      0.32009148	    -13.40230477	     -2.10433712	      3.83432408	    -25.88327593	     10.07123029	      4.44765751	     20.09119828	     -0.86838323	    -15.68354365	    -24.59268807	      6.75632147	     -9.16582439	     -4.68162924	     -3.14004796	      9.23618932
      5.54000000	      1.59938997	      0.79920026	    -38.24688725	      0.59890382	      0.88922345	      0.32216407	    -12.71382312	     -2.20268223	      4.36994087	    -27.37855635	      9.25619788	      4.76677663	     19.77596237	     -0.77377200	    -15.84421584	    -24.60019808	      7.00468332	     -9.24922738	     -4.60149092	     -3.16264370	      9.40227845
      5.55000000	      1.48619066	      0.82952778	    -38.39298271	      0.60428957	      0.88966957	      0.32420938	    -11.90307664	     -2.23512842	      4.89411519	    -29.01425003	      8.43879580	      5.28621583	     19.53491545	     -0.72556455	    -15.94227033	    -24.67754324	      7.29225141	     -9.34603116	     -4.50707561	     -3.15178790	      9.54510505
      5.56000000	      1.36137822	      0.84578475	    -38.53654137	      0.60951077	      0.89007414	      0.32620111	    -10.99528557	     -2.23379094	      5.36384743	    -30.78107021	      7.62190801	      5.87304517	     19.30538511	     -0.69589153	    -16.01762246	    -24.75359569	      7.60604621	     -9.42983949	     -4.42390182	     -3.11476397	      9.66368425
      5.57000000	      1.23070336	      0.85901327	    -38.65832625	      0.61455418	      0.89042443	      0.32812494	     -9.99566488	     -2.20619206	      5.76070923	    -32.66313129	      6.77417350	      6.60827419	     19.10470411	     -0.66645926	    -16.03055639	    -24.85172733	      7.94714248	     -9.53499623	     -4.35148007	     -3.07410047	      9.71996112
      5.58000000	      1.14473569	      0.88436218	    -38.85205677	      0.61934390	      0.89075461	      0.33007412	     -8.90675517	     -2.22439727	      6.13054295	    -34.69006369	      6.06481371	      7.04536575	     18.86354927	     -0.63127464	    -16.17260219	    -24.92868533	      8.28360613	     -9.60474054	     -4.32336214	     -3.08028220	      9.85721313
      5.59000000	      1.03729074	      0.91882670	    -38.98809885	      0.62398298	      0.89099729	      0.33186712	     -7.72103533	     -2.22431466	      6.36902649	    -36.78632221	      5.31599923	      7.71111761	     18.67614691	     -0.57832772	    -16.20803055	    -25.01880379	      8.64169453	     -9.75886072	     -4.28876128	     -3.07250755	      9.87807504
